<?xml version="1.0" encoding="iso-8859-1"?>
<!DOCTYPE svg PUBLIC "-//W3C//DTD SVG 20010904//EN" "http://www.w3.org/TR/2001/REC-SVG-20010904/DTD/svg10.dtd">
<svg version="1.0" xmlns="http://www.w3.org/2000/svg" xmlns:xlink="http://www.w3.org/1999/xlink" x="0px" y="0px" width="1152px" height="1152px" xml:space="preserve">
<g id="Layer 1">
</g>
<g id="RMK1575GM_Chandelier_Giant_Wall_Decal_Assembled_Product.jpg">
<path style="fill:rgb(0,0,0);stroke:rgb(0,0,0);" d="M 429.844 6.84933 C 428.166 7.74109 427.629 8.56547 426.252 12.3698 C 423.475 20.0389 423.578 31.7898 426.444 34.3835 C 428.048 35.8352 427.362 41.6625 425.277 44.3027 C 421.997 48.4552 420.4 57.5263 421.96 63.1441 C 422.287 64.3206 423.324 66.1602 424.266 67.232 C 425.207 68.3044 425.83 69.4198 425.649 69.7114 C 425.469 70.003 425.086 71.7305 424.797 73.5502 C 424.508 75.37 423.731 78.6426 423.072 80.8225 C 420.934 87.8818 421.517 98.2189 424.189 100.637 C 425.142 101.5 425.323 102.38 425.323 106.139 C 425.323 110.235 425.183 110.791 423.664 112.704 C 421.067 115.977 419.503 121.639 419.756 126.855 C 419.885 129.493 420.358 131.98 420.955 133.156 C 421.83 134.877 421.869 135.645 421.299 139.927 C 420.782 143.809 420.341 145.15 419.049 146.761 C 416.721 149.664 415.476 155.083 415.892 160.507 C 416.208 164.623 416.144 164.971 414.842 166.273 C 413.547 167.568 413.351 167.605 411.817 166.84 C 409.286 165.578 403.965 164.778 400.759 165.179 C 396.605 165.698 391.012 168.531 389.485 170.889 C 388.799 171.949 388.038 172.818 387.794 172.822 C 387.55 172.826 386.149 172.221 384.68 171.477 C 378.523 168.359 373.405 167.638 368.267 169.163 C 363.464 170.589 360.762 173.697 362.342 175.978 C 363.385 177.481 370.474 181.824 373.799 182.995 C 380.162 185.236 387.955 189.574 387.954 190.873 C 387.954 191.07 385.214 191.253 381.867 191.28 C 367.936 191.392 358.333 196.944 352.91 208.02 C 349.755 214.465 349.002 219.264 350.213 225.203 C 351.368 230.867 353.703 234.745 358.882 239.598 C 364.379 244.75 369.243 247.121 374.996 247.454 C 381.416 247.825 384.451 246.646 389.139 241.957 C 394.214 236.881 395.551 233.521 395.578 225.768 C 395.61 216.771 392.808 210.419 387.72 207.956 C 385.023 206.65 380.723 206.328 378.329 207.253 C 376.77 207.855 374.033 210.402 373.127 212.093 C 372.592 213.093 372.704 213.147 374.59 212.793 C 379.503 211.872 382.591 215.587 382.553 222.371 C 382.528 226.83 381.331 229.756 378.285 232.802 C 371.892 239.195 361.954 237.788 357.904 229.915 C 354.511 223.32 357.198 212.388 363.633 206.602 C 372.487 198.641 386.306 197.234 398.324 203.07 C 406.56 207.068 412.282 213.42 415.898 222.579 L 416.875 225.052 L 414.63 227.124 C 413.396 228.264 412.205 229.918 411.983 230.801 C 411.717 231.86 412.286 235.647 413.653 241.916 C 417.666 260.321 417.595 264.538 413.114 274.062 C 406.762 287.563 403.723 298.188 403.605 307.3 C 403.533 312.886 403.694 313.99 405.17 318.001 C 406.075 320.461 408.074 324.355 409.611 326.654 L 412.407 330.834 L 410.939 331.989 C 409.041 333.482 409.086 334.41 411.147 336.247 C 412.655 337.59 412.791 337.988 412.492 340.172 C 411.971 343.974 412.658 346.149 415.358 349.235 L 417.846 352.079 L 416.253 354.215 C 412.227 359.615 412.995 367.58 417.943 371.743 L 419.672 373.198 L 418.276 375.254 C 414.837 380.322 412.78 389.111 412.778 398.741 C 412.776 406.976 413.979 412.958 416.858 419.037 C 418.089 421.636 419.096 423.866 419.096 423.991 C 419.096 424.117 418.464 424.22 417.692 424.22 C 416.919 424.22 415.261 424.631 414.006 425.133 C 410.943 426.359 410.493 428.132 412.387 431.524 L 413.792 434.04 L 411.853 436.915 C 410.108 439.502 409.943 440.08 410.208 442.676 C 410.381 444.369 411.561 447.878 413.065 451.169 C 416.538 458.771 417.055 461.15 416.668 467.725 C 416.435 471.67 415.709 475.426 414.064 481.19 C 411.718 489.41 405.445 507.452 404.941 507.433 C 404.785 507.427 403.291 504.053 401.62 499.934 C 397.216 489.077 389.18 472.712 385.697 467.506 C 381.965 461.926 374.092 454.028 369.48 451.235 C 354.557 442.198 338.229 443.945 326.244 455.859 C 317.263 464.786 314.081 471.467 307.019 496.22 C 305.449 501.721 303.416 508.253 302.501 510.736 C 298.766 520.864 292.323 531.519 287.585 535.402 C 274.405 546.201 258.486 539.368 254.057 521.01 C 252.955 516.44 252.347 507.006 252.881 502.737 C 253.277 499.563 253.338 499.473 256.032 498.108 C 259.784 496.207 260.563 493.776 258.228 491.257 L 257.125 490.067 L 262.164 488.264 C 267.497 486.357 272.306 483.716 275.956 480.69 C 281.271 476.284 284.383 473.05 285.175 471.106 C 285.939 469.233 285.935 468.926 285.143 468.134 C 283.843 466.834 280.467 467.053 276.057 468.724 C 271.468 470.462 267.286 470.37 263.519 468.448 C 262.233 467.792 259.468 466.807 257.374 466.258 L 253.567 465.261 L 253.711 449.553 C 253.847 434.666 253.801 433.844 252.82 433.836 C 250.959 433.821 250.184 432.985 250.859 431.723 C 252.096 429.413 254.339 420.584 254.935 415.68 C 255.73 409.144 254.953 403.806 252.429 398.458 C 250.198 393.732 245.136 387.417 243.577 387.417 C 241.923 387.417 240.25 389.496 237.869 394.513 C 233.864 402.95 232.107 409.112 231.813 415.759 C 231.557 421.557 231.927 424.007 234.263 431.959 C 234.553 432.946 234.363 433.224 233.296 433.375 L 231.969 433.563 L 231.685 451.964 L 231.402 470.366 L 230.113 470.549 C 229.404 470.649 226.856 470.094 224.451 469.315 C 218.295 467.32 214.737 466.686 209.718 466.686 C 206.102 466.687 204.777 466.961 201.96 468.295 C 197.083 470.604 196.831 471.061 198.756 474.093 C 203.515 481.586 214.041 488.442 223.86 490.441 L 227.074 491.095 L 226.754 493.067 C 226.388 495.33 227.774 497.241 230.647 498.431 C 231.652 498.847 232.074 499.284 231.696 499.518 C 230.431 500.299 238.427 516.807 244.497 525.949 C 246.323 528.698 250.366 533.518 253.482 536.658 C 259.872 543.1 264.855 546.051 271.213 547.161 C 284.017 549.396 297.775 538.843 308.221 518.775 C 309.599 516.128 312.089 510.905 313.754 507.168 C 321.11 490.661 326.06 482.224 331.59 476.773 C 350.467 458.169 379.288 471.528 397.194 507.181 C 402.078 516.905 402.606 518.527 402.079 522.172 C 401.341 527.271 401.488 536.412 402.39 541.586 C 403.514 548.032 405.679 553.694 408.917 558.654 C 411.672 562.874 413.452 564.614 416.304 565.877 C 418.33 566.773 418.362 567.079 416.55 568.265 C 414.846 569.382 414.712 571.165 416.268 571.998 C 417.399 572.604 417.399 572.61 416.283 574.797 C 415.668 576.003 414.998 578.032 414.794 579.306 C 414.59 580.58 414.346 581.623 414.253 581.623 C 414.16 581.623 412.553 580.712 410.684 579.598 C 395.586 570.604 374.23 572.29 355.262 583.972 C 351.812 586.097 348.217 589.114 343.22 594.079 C 333.294 603.941 327.51 612.727 321.97 626.353 C 312.043 650.769 295.578 673.488 281.78 681.808 C 271.146 688.22 254.885 685.473 244.375 675.49 C 231.562 663.32 233.116 648.004 247.904 640.696 C 255.248 637.066 260.879 637.561 265.567 642.249 C 273.159 649.841 272.148 661.332 263.543 665.271 C 257.299 668.13 251.694 666.522 248.004 660.811 L 246.124 657.901 L 245.952 660.844 C 245.569 667.393 248.922 673.23 254.43 675.599 C 262.208 678.946 273.826 674.092 279.584 665.091 C 286.267 654.643 284.797 642.372 275.873 634.11 C 271.422 629.989 267.24 628.042 261.99 627.644 C 256.792 627.251 253.102 628.089 246.973 631.053 C 240.378 634.243 233.376 641.117 230.422 647.303 C 229.306 649.638 228.238 652.027 228.048 652.612 C 227.769 653.474 227.292 653.039 225.54 650.328 C 223.04 646.46 219.65 643.377 215.91 641.568 C 211.937 639.646 205.914 639.765 201.317 641.856 C 199.407 642.725 197 644.306 195.969 645.37 C 194.939 646.433 193.865 647.303 193.583 647.303 C 192.796 647.303 193.773 639.273 194.669 638.377 C 195.887 637.16 195.635 634.474 194.211 633.475 C 193.529 632.998 193.135 632.442 193.337 632.241 C 193.538 632.04 195.562 631.252 197.833 630.491 C 202.696 628.861 207.723 626.132 211.39 623.13 C 212.838 621.944 214.955 620.251 216.094 619.366 C 220.44 615.992 222.951 610.612 220.6 609.71 C 218.816 609.026 215.949 609.396 211.827 610.842 C 206.791 612.608 203.535 612.465 198.848 610.27 C 197.135 609.469 194.278 608.524 192.499 608.171 L 189.264 607.529 L 189.617 591.746 L 189.97 575.962 L 188.497 575.962 C 187.687 575.962 186.893 575.749 186.732 575.489 C 186.571 575.229 187.083 573.169 187.868 570.91 C 190.714 562.727 191.745 552.196 190.31 545.969 C 189.391 541.98 186.706 536.922 183.45 533.048 C 181.066 530.211 180.171 529.519 179.059 529.651 C 177.194 529.872 175.126 532.979 172.227 539.919 C 166.703 553.141 166.225 561.84 170.336 574.358 C 170.558 575.033 170.268 575.356 169.319 575.491 L 167.991 575.679 L 167.842 593.923 C 167.7 611.293 167.64 612.195 166.598 612.753 C 165.775 613.193 164.768 613.048 162.534 612.168 C 157.53 610.195 150.677 608.81 145.909 608.806 C 142.103 608.803 140.837 609.059 137.983 610.411 C 133.068 612.738 132.763 613.273 134.643 616.261 C 139.424 623.857 149.318 630.255 159.923 632.606 C 163.494 633.398 163.42 633.337 162.609 634.851 C 161.303 637.292 165.145 640.764 170.414 641.903 C 171.981 642.241 172.543 642.849 174.015 645.794 C 187.683 673.127 214.419 694.25 240.747 698.517 C 265.21 702.481 288.859 693.527 309.043 672.659 C 315.961 665.506 321.269 657.272 328.556 642.392 C 331.938 635.487 334.966 629.676 335.286 629.477 C 335.619 629.272 335.869 629.662 335.869 630.389 C 335.869 631.088 336.412 632.237 337.075 632.944 C 339.142 635.143 338.854 637.802 335.819 644.528 C 331.537 654.018 330.606 657.172 330.575 662.307 C 330.551 666.274 330.755 667.222 332.217 669.935 C 334.501 674.174 336.974 675.784 340.733 675.483 C 344.275 675.199 346.767 673.537 348.467 670.328 C 349.516 668.346 349.714 667.065 349.707 662.307 C 349.697 655.926 348.533 650.996 345.105 642.832 C 342.769 637.268 342.683 635.377 344.659 633.027 C 346.497 630.843 346.51 628.072 344.692 625.96 C 343.507 624.583 342.947 624.383 340.487 624.456 L 337.649 624.54 L 339.94 620.776 C 352.468 600.184 367.298 585.981 381.164 581.294 C 385.703 579.76 393.435 579.879 397.692 581.549 C 400.941 582.823 407.209 587.053 407.209 587.971 C 407.209 588.244 403.654 588.414 399.309 588.35 C 390.127 588.215 389.367 588.502 389.826 591.924 C 390.181 594.57 393.076 598.592 397.723 602.895 C 402.103 606.949 406.267 609.64 411.716 611.935 L 415.941 613.715 L 415.779 616.344 C 415.492 621.005 413.614 628.874 411.803 633 C 410.833 635.21 410.039 637.363 410.039 637.784 C 410.039 639.415 404.719 647.527 401.611 650.635 C 395.925 656.321 389.717 658.167 383.371 656.059 C 379.694 654.838 375.525 651.092 373.744 647.41 C 371.821 643.431 371.862 636.689 373.834 632.855 C 376.021 628.603 379.329 626.772 385.304 626.506 C 389.346 626.325 390.228 626.466 392.188 627.608 C 395.491 629.532 397.017 632.108 397.017 635.759 C 397.017 638.286 396.749 639.076 395.346 640.673 C 390.765 645.89 383.176 643.959 382.436 637.388 C 382.066 634.112 380.919 633.509 379.093 635.631 C 376.311 638.866 378.112 644.861 382.489 646.938 C 385.215 648.232 390.602 648.134 394.375 646.722 C 403.24 643.405 406.434 633.404 401.016 625.926 C 397.74 621.402 389.125 618.502 382.252 619.609 C 367.143 622.042 360.626 637.834 369.24 651.14 C 371.857 655.181 374.823 657.809 378.873 659.673 C 381.48 660.874 382.829 661.115 386.826 661.095 C 394.792 661.054 401.54 657.943 408.378 651.159 L 412.194 647.373 L 414.609 649.602 C 415.936 650.828 416.917 651.913 416.787 652.013 C 416.658 652.114 415.336 652.646 413.849 653.197 C 409.41 654.842 404.509 658.505 396.884 665.876 C 390.876 671.684 388.969 673.171 385.452 674.797 C 383.13 675.869 380.271 676.946 379.1 677.19 C 377.407 677.541 376.426 678.326 374.324 681.009 C 371.095 685.13 371.278 686.209 375.57 688.384 C 379.813 690.534 384.979 690.22 390.455 687.478 C 393.284 686.06 394.434 685.721 394.614 686.248 C 395.174 687.895 397.774 690.323 400.287 691.547 C 403.609 693.166 410.251 693.327 413.601 691.87 L 415.746 690.938 L 418.295 692.883 C 419.696 693.953 421.853 695.131 423.086 695.501 C 424.319 695.87 425.328 696.283 425.328 696.418 C 425.328 696.554 424.818 697.312 424.195 698.104 C 423.573 698.896 423.063 700.146 423.063 700.883 C 423.063 702.14 424.814 704.486 425.753 704.487 C 425.986 704.487 426.214 705.124 426.259 705.903 C 426.303 706.681 426.122 707.318 425.856 707.318 C 424.819 707.318 423.063 709.876 423.063 711.388 C 423.063 712.945 424.758 715.245 425.905 715.245 C 426.901 715.245 425.785 718.282 424.383 719.384 C 422.628 720.766 422.637 723.363 424.406 725.131 C 425.144 725.869 425.913 727.131 426.115 727.936 C 426.444 729.249 426.319 729.399 424.892 729.399 C 423.013 729.399 418.554 731.563 417.778 732.85 C 416.917 734.281 417.768 736.398 419.651 737.51 L 421.381 738.532 L 418.684 740.336 C 414.017 743.454 411.964 749.04 413.479 754.495 C 414.062 756.596 418.099 761.248 420.478 762.561 C 421.517 763.134 421.525 763.235 420.62 764.527 C 419.078 766.728 419.377 770.359 421.28 772.553 C 424.208 775.929 424.043 777.562 419.733 787.883 C 414.124 801.314 412.912 806.589 414.021 812.743 C 415.205 819.315 419.003 824.407 423.655 825.66 C 427.216 826.618 431.343 825.21 434.266 822.039 C 440.283 815.512 439.395 802.748 431.663 784.604 C 428.448 777.059 428.322 775.214 430.849 772.686 C 432.365 771.17 432.689 770.408 432.689 768.367 C 432.689 766.958 432.277 765.3 431.733 764.524 C 431.022 763.509 430.958 763.1 431.482 762.925 C 433.201 762.352 437.036 758.881 438.155 756.886 C 441.532 750.865 439.469 743.536 433.255 739.486 C 431.898 738.601 431.886 738.546 432.972 738.144 C 434.874 737.438 436.652 735.501 436.652 734.136 C 436.652 731.777 432.763 729.412 428.867 729.403 C 427.569 729.399 427.155 728.605 428.135 727.999 C 428.432 727.815 428.533 727.29 428.357 726.833 C 428.165 726.333 428.372 726.002 428.878 726.002 C 430.027 726.002 430.916 724.818 431.333 722.73 C 431.619 721.297 431.391 720.694 430.065 719.387 C 428.161 717.511 427.775 715.443 429.241 714.977 C 430.292 714.644 431.556 712.432 431.556 710.928 C 431.556 710.452 430.849 709.354 429.984 708.49 C 427.97 706.475 427.827 704.82 429.599 704.012 C 431.323 703.227 431.934 700.906 430.938 698.924 C 430.519 698.091 430.084 697.218 429.97 696.985 C 429.856 696.751 430.248 696.56 430.84 696.56 C 433.349 696.56 437.991 694.671 440.047 692.815 L 442.242 690.832 L 444.118 691.854 C 445.531 692.624 447.252 692.876 451.09 692.878 C 455.634 692.88 456.474 692.711 458.839 691.321 C 460.298 690.463 462.062 688.934 462.76 687.924 C 463.458 686.913 464.089 686.003 464.161 685.902 C 464.234 685.801 465.271 686.364 466.468 687.154 C 472.744 691.297 480.92 691.393 485.196 687.376 C 488.121 684.627 485.865 681.43 478.383 677.72 C 476.011 676.544 473.914 675.329 473.724 675.021 C 473.533 674.713 473.133 674.612 472.834 674.797 C 471.716 675.487 467.293 672.076 460.15 665.017 C 452.55 657.505 448.154 654.336 443.023 652.667 C 441.388 652.136 440.05 651.606 440.05 651.49 C 440.05 651.375 441 650.409 442.161 649.345 L 444.272 647.411 L 447.805 651.032 C 453.508 656.877 459.393 660.138 466.593 661.444 C 477.407 663.405 487.607 656.134 490.804 644.187 C 491.867 640.212 491.759 637.262 490.388 632.824 C 488.84 627.811 484.503 623.243 479.397 621.246 C 474.711 619.413 467.78 619.417 463.015 621.253 C 457.196 623.496 453.073 628.764 453.073 633.952 C 453.073 639.864 457.563 645.838 463.283 647.537 C 469.462 649.371 474.075 648.476 477.287 644.817 C 478.7 643.207 479.118 642.214 479.118 640.458 C 479.118 637.884 477.911 635.154 476.54 634.628 C 475.112 634.08 474.777 634.578 474.404 637.8 C 473.931 641.878 471.78 643.904 467.926 643.901 C 463.545 643.897 460.11 641.137 459.825 637.392 C 459.525 633.446 459.861 632.436 462.273 630.026 C 466.3 626.002 472.411 625.483 478.6 628.641 C 484.265 631.531 486.335 640.353 483.079 647.725 C 481.566 651.15 479.026 653.797 475.437 655.688 C 471.341 657.848 465.345 657.824 461.147 655.631 C 451.143 650.407 443.1 634.878 440.966 616.668 L 440.661 614.062 L 443.045 613.365 C 447.225 612.143 453.479 608.869 456.919 606.103 C 463.622 600.712 468.93 593.367 468.072 590.666 C 467.412 588.583 465.84 588.284 457.821 588.714 C 452.632 588.992 450.242 588.932 450.242 588.523 C 450.242 588.194 451.325 587.047 452.649 585.974 C 466.078 575.076 483.321 579.397 500.83 598.048 C 510.841 608.713 517.534 618.999 527.858 639.585 C 535.785 655.389 538.748 660.521 543.573 666.797 C 548.99 673.843 558.783 682.514 567.501 687.982 C 598.052 707.145 634.165 701.834 662.768 673.969 C 671.195 665.759 678.316 656.513 682.324 648.575 C 683.147 646.944 683.906 646.168 684.677 646.168 C 686.32 646.168 689.802 644.612 691.293 643.212 C 692.879 641.721 692.948 639.321 691.442 637.959 C 690.82 637.395 690.31 636.767 690.31 636.562 C 690.31 636.358 691.581 635.865 693.134 635.467 C 701.478 633.329 715.256 623.816 717.978 618.314 C 720.345 613.53 717.268 612.329 709.521 615.011 C 703.654 617.042 701.286 616.975 695.973 614.627 C 694.26 613.87 691.457 612.929 689.744 612.536 L 686.63 611.821 L 686.851 596.157 L 687.072 580.493 L 685.263 580.131 C 683.898 579.858 683.541 579.545 683.807 578.855 C 686.605 571.618 688.093 564.438 688.162 557.842 C 688.247 549.764 685.598 542.962 679.892 536.608 L 676.843 533.212 L 675.225 534.401 C 673.259 535.847 669.526 543.128 666.989 550.466 C 665.204 555.631 665.127 556.208 665.162 564.07 C 665.193 571.052 665.383 572.782 666.436 575.64 C 667.689 579.042 667.511 579.89 665.539 579.915 C 664.988 579.922 664.832 583.984 664.832 598.314 L 664.832 616.705 L 663.528 617.032 C 662.796 617.215 660.356 616.732 657.971 615.931 C 652.015 613.932 644.205 612.639 640.768 613.083 C 638.1 613.427 630.294 616.967 630.294 617.831 C 630.294 618.051 631.07 619.403 632.019 620.836 C 634.451 624.506 640.37 629.878 644.568 632.224 C 647.775 634.016 654.742 636.549 658.692 637.361 C 660.071 637.644 660.171 637.849 659.905 639.836 C 659.648 641.746 659.826 642.18 661.417 643.519 C 662.408 644.353 663.455 645.035 663.743 645.035 C 665.114 645.035 664.117 651.722 661.905 657.35 C 660.624 660.61 659.739 661.186 659.731 658.766 C 659.714 654.133 654.322 647.755 648.616 645.62 C 640.998 642.77 633.75 644.821 627.556 651.582 C 625.719 653.587 624.087 655.227 623.93 655.227 C 623.772 655.227 623.486 654.242 623.294 653.039 C 622.802 649.966 618.917 642.49 615.939 638.887 C 608.275 629.613 597.208 624.581 588.298 626.318 C 583.401 627.273 578.839 629.829 575.177 633.667 C 571.458 637.566 569.448 641.368 568.583 646.137 C 566.723 656.394 572.938 668.085 582.901 673.07 C 593.714 678.479 603.654 672.894 605.087 660.606 L 605.482 657.209 L 603.709 659.642 C 601.086 663.242 597.34 665.421 593.803 665.406 C 586.226 665.373 580.424 659.028 581.188 651.614 C 582.038 643.377 589.298 636.621 596.644 637.23 C 602.474 637.713 610.363 643.223 613.603 649.072 C 615.101 651.777 615.287 652.645 615.287 656.934 C 615.287 661.272 615.093 662.152 613.353 665.71 C 609.654 673.273 601.116 679.682 591.79 681.895 C 587.136 683 578.369 682.812 575.927 681.556 C 563.973 675.406 545.484 650.381 536.907 628.74 C 526.215 601.764 509.472 584.148 487.61 576.871 C 473.828 572.284 460.329 572.857 449.11 578.507 C 446.975 579.582 445.067 580.722 444.87 581.042 C 444.146 582.213 443.446 581.572 443.446 579.736 C 443.446 578.699 442.821 576.616 442.058 575.107 C 440.821 572.664 440.766 572.294 441.553 571.718 C 442.893 570.738 442.25 568.983 440.203 568.033 C 437.919 566.972 437.908 566.655 440.12 565.738 C 444.746 563.822 450.134 555.854 452.159 547.933 C 453.627 542.195 454.375 533.636 454.055 526.235 C 453.761 519.426 453.801 519.098 455.419 515.174 C 463.158 496.401 476.972 479.647 490.157 473.042 C 495.377 470.428 499.146 469.515 504.716 469.515 C 519.83 469.515 529.004 478.424 540.571 504.336 C 550.148 525.79 556.262 535.279 564.684 541.759 C 572.514 547.785 580.329 549.582 588.203 547.17 C 598.587 543.988 609.457 532.354 618.701 514.527 L 621.93 508.299 L 624.837 507.402 C 628.771 506.19 631.273 504.827 631.974 503.518 C 632.818 501.94 632.72 501.503 631.091 499.567 C 630.037 498.313 629.838 497.764 630.384 497.603 C 634.734 496.321 640.457 493.972 643.08 492.393 C 648.723 488.994 656.421 482.148 657.751 479.345 C 658.885 476.956 658.579 475.926 656.493 475.113 C 655.185 474.604 654.003 474.808 649.45 476.326 C 643.089 478.448 640.857 478.361 634.821 475.752 C 632.797 474.877 630.058 473.985 628.734 473.77 L 626.328 473.378 L 626.328 457.56 L 626.328 441.742 L 624.752 441.427 L 623.177 441.112 L 624.726 436.479 C 630.026 420.633 628.811 409.355 620.721 399.306 C 616.934 394.602 616.414 394.32 614.62 395.995 C 612.584 397.898 610.857 401.044 608.279 407.55 C 603.979 418.406 603.213 427.601 605.9 436.108 C 607.352 440.704 607.359 440.559 605.67 441.201 L 604.262 441.736 L 604.113 460.013 L 603.963 478.29 L 601.981 478.208 C 600.892 478.163 597.834 477.452 595.187 476.627 C 588.657 474.593 583.184 473.88 579.486 474.581 C 576.128 475.218 570.935 477.67 570.49 478.828 C 569.713 480.852 575.221 487.437 581.206 491.64 C 585.348 494.548 591.592 497.222 597.047 498.423 C 599.3 498.919 600.139 499.327 599.736 499.729 C 598.462 501.003 599.102 503.39 601.133 504.939 L 603.114 506.451 L 603.114 511.22 C 603.114 523.989 597.958 535.103 590.032 539.416 C 587.675 540.699 586.095 541.107 582.753 541.293 C 572.435 541.868 564.841 535.571 557.299 520.188 C 553.716 512.879 552.27 508.726 547.346 491.595 C 541.958 472.852 538.175 465.23 530.357 457.367 C 514.598 441.519 492.721 442.952 476.249 460.911 C 469.567 468.196 463.521 479.034 455.66 497.817 C 452.252 505.958 450.808 508.394 450.808 505.999 C 450.808 505.462 448.635 498.463 445.979 490.447 C 443.324 482.43 440.78 474.123 440.327 471.985 C 438.681 464.213 439.387 458.574 443.004 450.624 C 445.744 444.602 446.417 439.679 444.902 436.75 C 444.381 435.741 443.587 434.775 443.138 434.603 C 442.468 434.346 442.535 433.992 443.508 432.624 C 444.161 431.708 444.827 429.977 444.987 428.777 C 445.242 426.882 445.084 426.467 443.789 425.619 C 442.969 425.081 441.156 424.513 439.759 424.355 C 438.362 424.198 437.219 423.893 437.219 423.677 C 437.219 423.461 437.968 421.902 438.882 420.212 C 442.155 414.163 443.15 409.154 443.148 398.737 C 443.145 388.003 442.498 384.72 438.964 377.525 L 436.749 373.015 L 438.47 371.054 C 440.845 368.349 441.749 365.914 441.749 362.217 C 441.749 358.772 440.657 355.575 438.808 353.607 L 437.62 352.343 L 440.488 349.637 C 443.687 346.619 444.588 344.015 443.507 340.915 C 442.664 338.494 442.679 338.428 444.267 337.705 C 445.029 337.358 446.086 336.411 446.616 335.602 C 447.566 334.152 447.549 334.098 445.514 332.013 C 444.377 330.849 443.447 329.519 443.447 329.056 C 443.447 328.593 444.438 326.898 445.648 325.287 C 450.588 318.712 452.204 313.023 451.804 303.616 C 451.535 297.284 451.401 296.731 446.94 283.516 C 440.307 263.87 440.208 262.194 444.576 243.274 C 446.962 232.941 446.971 231.368 444.657 228.379 C 443.641 227.066 443.643 226.952 444.71 224.132 C 450.369 209.19 460.918 200.765 476.004 199.142 C 485.561 198.115 496.195 202.834 501.196 210.323 C 503.823 214.257 505.498 220.738 504.946 224.829 C 503.866 232.83 496.588 238.199 489.434 236.273 C 481.63 234.171 476.427 223.936 479.561 216.851 C 481.048 213.488 482.883 212.284 486.126 212.543 L 488.626 212.742 L 487.889 211.326 C 484.592 204.992 475.401 204.479 470.253 210.342 C 466.391 214.741 464.504 224.639 466.26 231.285 C 467.968 237.751 472.319 243.167 477.902 245.776 C 485.659 249.403 495.269 246.549 503.792 238.087 C 512.418 229.524 514.097 218.561 508.498 207.374 C 504.582 199.551 497.18 193.794 488.426 191.764 C 484.383 190.826 476.612 190.58 472.013 191.243 L 469.209 191.648 L 470.908 189.83 C 473.197 187.379 476.212 185.673 484.02 182.412 C 491.335 179.358 494.42 177.461 495.57 175.311 C 496.647 173.298 495.446 171.313 492.14 169.641 C 486.824 166.952 480.516 167.369 473.578 170.865 C 471.487 171.919 469.687 172.527 469.58 172.216 C 469.03 170.629 466.267 168.185 463.477 166.82 C 459.012 164.635 453.419 164.338 447.963 165.995 L 443.88 167.235 L 442.633 166.063 C 441.489 164.988 441.407 164.487 441.642 160.013 C 441.995 153.286 441.073 149.501 438.44 146.868 L 436.369 144.797 L 436.449 138.569 C 436.513 133.502 436.757 131.836 437.757 129.633 C 440.448 123.705 439.63 114.565 436.091 111.026 C 434.561 109.496 434.471 109.127 434.35 103.891 C 434.249 99.5172 434.44 97.8979 435.269 96.1041 C 436.481 93.4838 436.668 84.1993 435.725 73.4562 C 435.191 67.3668 435.208 67.1918 436.509 65.5952 C 439.353 62.1045 440.248 59.5329 440.502 54.1268 C 440.777 48.2729 440.155 45.6854 437.821 42.9744 C 436.406 41.3308 436.289 40.8319 436.4 36.9365 C 436.481 34.1367 436.962 31.5327 437.814 29.2928 C 438.87 26.5185 439.109 24.7542 439.123 19.6675 C 439.144 12.2933 437.99 8.85933 434.85 6.94501 C 432.546 5.54028 432.31 5.53575 429.848 6.84367 L 429.844 6.84933 zM 435.051 14.9771 C 435.57 16.7108 435.578 18.4377 435.085 22.3445 C 434.731 25.1511 434.325 27.5631 434.184 27.7041 C 434.042 27.8456 433.392 27.6276 432.739 27.2194 C 431.76 26.6079 431.343 26.6079 430.364 27.2194 C 429.71 27.6271 429.042 27.8264 428.877 27.6622 C 428.23 27.0145 428.672 20.1006 429.509 17.7951 C 430.732 14.4228 432.538 12.0085 433.548 12.3964 C 434.001 12.5702 434.677 13.7315 435.051 14.9771 L 435.051 14.9771 zM 433.576 37.8175 C 433.783 38.9222 433.858 39.9051 433.743 40.0019 C 433.627 40.0993 432.577 40.3258 431.41 40.5064 L 429.287 40.8342 L 429.287 38.6425 C 429.287 36.6862 429.454 36.4258 430.844 36.2152 C 431.7 36.0855 432.58 35.9411 432.8 35.8947 C 433.02 35.8483 433.368 36.7134 433.576 37.8181 L 433.576 37.8175 zM 433.25 47.6303 C 433.25 47.9037 432.849 48.4603 432.358 48.868 C 431.618 49.4817 431.377 49.4693 430.951 48.7955 C 430.13 47.4978 430.323 47.1331 431.835 47.1331 C 432.613 47.1331 433.25 47.3568 433.25 47.6303 L 433.25 47.6303 zM 435.577 50.3888 C 437.234 54.6857 434.839 64.0013 432.156 63.6956 C 431.478 63.6186 430.201 63.9294 429.317 64.3863 C 427.805 65.1682 427.623 65.132 426.269 63.7777 C 425.477 62.9855 424.66 61.5684 424.453 60.6279 C 423.934 58.264 424.64 54.1104 426.022 51.4023 C 427.176 49.1409 427.182 49.1375 428.019 50.3984 C 429.121 52.0579 431.264 52.0177 432.846 50.3073 C 434.496 48.5226 434.862 48.5334 435.577 50.3888 L 435.577 50.3888 zM 431.552 71.0986 C 431.552 72.2406 431.325 72.3827 429.853 72.167 C 427.302 71.7927 427.62 69.7816 430.231 69.7816 C 431.236 69.7816 431.552 70.0964 431.552 71.0992 L 431.552 71.0986 zM 432.908 83.1382 C 433.207 83.9156 432.335 91.792 431.797 93.1826 C 431.522 93.892 431.024 94.1219 430.22 93.9118 C 429.551 93.7369 428.615 93.9939 428.046 94.5097 C 427.125 95.3426 427.012 95.3301 426.617 94.3467 C 425.924 92.6181 426.115 86.0649 426.915 84.1659 C 427.588 82.5669 427.872 82.4186 430.162 82.4673 C 431.542 82.4967 432.778 82.7985 432.909 83.1382 L 432.908 83.1382 zM 430.642 102.95 C 430.831 103.443 430.985 104.971 430.985 106.347 C 430.985 108.638 430.866 108.849 429.57 108.849 C 428.237 108.849 428.154 108.673 428.154 105.829 C 428.154 104.168 428.324 102.64 428.532 102.432 C 429.201 101.763 430.289 102.03 430.642 102.95 L 430.642 102.95 zM 433.611 118.231 C 434.52 119.617 434.957 126.015 434.195 126.777 C 434.027 126.945 433.307 126.675 432.594 126.176 C 429.979 124.344 425.673 125.521 424.16 128.482 C 423.348 130.072 423.342 130.062 423.173 126.853 C 423.05 124.503 423.339 122.847 424.233 120.767 C 424.909 119.195 425.562 117.908 425.684 117.908 C 425.806 117.908 426.403 118.219 427.011 118.599 C 427.936 119.177 428.375 119.089 429.693 118.065 C 431.766 116.453 432.465 116.483 433.611 118.231 L 433.611 118.231 zM 430.985 132.285 C 430.985 133.09 429.355 134.018 428.842 133.505 C 428.48 133.144 429.83 131.497 430.488 131.497 C 430.762 131.497 430.985 131.852 430.985 132.285 L 430.985 132.285 zM 432.461 138.054 C 432.272 138.547 432.118 139.948 432.118 141.168 L 432.118 143.387 L 429.004 143.387 L 425.89 143.387 L 425.89 140.839 C 425.89 138.344 425.927 138.291 427.73 138.282 C 428.742 138.278 429.952 138.027 430.419 137.725 C 431.752 136.864 432.85 137.041 432.461 138.054 L 432.461 138.054 zM 432.31 155.702 C 433.742 160.981 433.46 161.505 429.197 161.505 L 425.831 161.505 L 426.002 158.533 L 426.173 155.56 L 428.437 155.216 C 429.683 155.027 431.003 154.835 431.372 154.791 C 431.74 154.747 432.162 155.157 432.31 155.702 L 432.31 155.702 zM 434.407 618.325 C 434.421 619.782 434.63 621.993 434.872 623.239 L 435.312 625.504 L 428.33 625.504 C 423.085 625.504 421.414 625.333 421.612 624.816 C 421.757 624.438 422.048 622.222 422.259 619.893 L 422.643 615.657 L 428.513 615.666 L 434.382 615.675 L 434.407 618.325 L 434.407 618.325 zM 216.648 650.934 C 221.444 652.937 225.789 659.608 227.376 667.403 C 227.883 669.894 229.071 673.516 230.017 675.452 C 232.02 679.553 237.135 684.934 240.955 686.961 C 244.01 688.582 244.353 689.447 241.734 688.926 C 228.341 686.263 217.464 681.291 208.432 673.703 C 203.859 669.861 198.279 662.962 198.279 661.15 C 198.279 659.196 201.118 654.147 203.008 652.739 C 203.988 652.009 205.554 651.144 206.489 650.817 C 208.971 649.949 214.443 650.012 216.648 650.934 L 216.648 650.934 zM 645.36 655.536 C 650.019 657.792 652.69 662.93 652.265 668.823 C 652.1 671.129 651.797 671.564 648.342 674.458 C 641.622 680.088 631.56 685.078 622.001 687.523 C 616.643 688.893 608.29 689.928 604.809 689.652 L 602.261 689.45 L 603.959 688.737 C 611.523 685.561 617.027 681.196 619.73 676.232 C 620.588 674.654 621.911 671.54 622.669 669.311 C 624.342 664.391 626.106 661.298 628.842 658.486 C 633.725 653.466 639.103 652.506 645.361 655.536 L 645.36 655.536 zM 460.384 251.487 C 457.004 254.867 459.066 260.281 463.732 260.281 C 466.962 260.281 468.927 258.371 468.902 255.254 C 468.863 250.258 463.836 248.035 460.384 251.487 L 460.384 251.487 zM 501.413 252.086 C 499.212 252.975 497.66 255.561 498.01 257.759 C 498.708 262.152 503.75 263.783 506.899 260.634 C 509.613 257.921 508.647 253.399 505.09 252.158 C 503.027 251.439 503.014 251.439 501.413 252.086 L 501.413 252.086 zM 351.389 253.409 C 350.166 254.46 349.864 255.21 349.864 257.193 C 349.864 259.176 350.166 259.927 351.389 260.977 C 355.382 264.413 361.256 260.869 359.982 255.793 C 359.071 252.165 354.356 250.856 351.389 253.408 L 351.389 253.409 zM 390.829 254.695 C 389.438 255.866 389.087 256.602 389.087 258.344 C 389.087 261.586 391.085 263.678 394.182 263.678 C 398.939 263.678 401.043 258.303 397.623 254.885 C 395.514 252.775 393.188 252.71 390.829 254.695 L 390.829 254.695 zM 367.988 256.768 C 365.937 258.326 365.789 262.32 367.738 263.524 C 369.103 264.367 368.623 267.25 366.061 273.613 C 363.333 280.389 362.47 285.394 363.285 289.733 C 363.76 292.266 367.063 296.059 369.203 296.529 C 372.893 297.339 376.811 294.222 377.831 289.666 C 378.713 285.726 377.589 279.728 374.651 272.697 C 371.916 266.149 371.67 264.554 373.187 263.181 C 374.914 261.617 374.762 258.719 372.874 257.234 C 371.182 255.903 369.357 255.729 367.988 256.768 L 367.988 256.768 zM 485.906 257.759 C 485.277 258.388 484.774 259.646 484.774 260.59 C 484.774 261.534 485.277 262.792 485.906 263.421 C 487.514 265.029 487.321 267.255 485.109 272.615 C 482.163 279.754 481.221 283.538 481.492 287.136 C 481.947 293.172 484.934 296.82 489.425 296.825 C 492.055 296.827 495.163 294.282 496.138 291.326 C 497.54 287.078 495.417 276.626 491.652 269.247 C 490.14 266.283 490.121 265.014 491.568 263.704 C 493.191 262.236 493.118 258.682 491.442 257.508 C 489.708 256.293 487.261 256.404 485.906 257.759 L 485.906 257.759 zM 464.544 264.952 C 461.135 265.61 459.764 271.302 462.384 273.921 C 466.486 278.024 473.345 272.478 470.574 267.299 C 470.076 266.369 466.57 264.339 465.967 264.631 C 465.879 264.673 465.239 264.817 464.544 264.952 L 464.544 264.952 zM 389.037 269.243 C 386.396 271.271 386.148 274.725 388.477 277.054 C 391.857 280.433 397.271 278.371 397.271 273.705 C 397.271 270.475 395.36 268.511 392.243 268.535 C 390.974 268.545 389.531 268.863 389.037 269.243 L 389.037 269.243 zM 348.491 270.789 C 347.191 271.312 345.489 274.037 345.489 275.594 C 345.489 277.536 347.195 279.755 349.193 280.415 C 354.552 282.184 358.561 275.84 354.592 271.871 C 352.879 270.158 350.92 269.81 348.491 270.789 L 348.491 270.789 zM 504.449 270.827 C 502.892 271.735 501.643 274.624 502.036 276.414 C 503.035 280.959 509.606 282.129 511.675 278.13 C 512.966 275.632 512.719 273.726 510.863 271.87 C 509.115 270.123 506.413 269.683 504.449 270.826 L 504.449 270.827 zM 467.788 280.22 C 465.607 281.071 464.391 282.878 464.391 285.268 C 464.391 287.251 464.693 287.921 466.133 289.133 C 468.493 291.118 470.818 291.053 472.928 288.944 C 475.016 286.855 475.171 283.97 473.309 281.854 C 472.025 280.395 469.36 279.606 467.788 280.22 L 467.788 280.22 zM 386.128 284.098 C 382.93 285.881 382.444 289.705 385.08 292.341 C 387.845 295.106 392.375 294.077 393.586 290.407 C 395.076 285.894 390.242 281.804 386.128 284.098 L 386.128 284.098 zM 345.489 289.279 C 343.308 290.13 342.092 291.937 342.092 294.327 C 342.092 296.31 342.394 296.98 343.834 298.192 C 346.194 300.178 348.519 300.112 350.629 298.003 C 352.718 295.914 352.873 293.029 351.01 290.913 C 349.726 289.454 347.061 288.666 345.489 289.279 L 345.489 289.279 zM 507.378 290.555 C 504.662 293.271 505.409 297.412 508.875 298.861 C 513.513 300.798 517.923 296.162 515.64 291.748 C 513.983 288.543 509.97 287.964 507.378 290.555 L 507.378 290.555 zM 470.336 296.945 C 468.53 297.98 467.826 299.227 467.806 301.422 C 467.771 305.417 471.243 307.719 474.961 306.166 C 477.092 305.275 477.986 303.812 477.962 301.252 C 477.924 297.381 473.718 295.005 470.336 296.945 L 470.336 296.945 zM 381.683 301.313 C 378.968 304.027 379.546 307.854 382.936 309.606 C 386.301 311.346 390.219 309.012 390.219 305.267 C 390.219 302.361 389.78 301.451 387.914 300.486 C 385.444 299.209 383.532 299.463 381.683 301.313 L 381.683 301.313 zM 513.353 307.23 C 510.024 308.705 509.289 312.936 511.908 315.555 C 514.616 318.262 518.449 317.691 520.191 314.321 C 522.442 309.969 517.869 305.228 513.353 307.23 L 513.353 307.23 zM 338.953 308.408 C 337.93 309.431 337.563 310.41 337.563 312.114 C 337.563 316.846 342.915 319.064 346.262 315.717 C 349.608 312.371 347.391 307.018 342.658 307.018 C 340.954 307.018 339.975 307.385 338.953 308.408 L 338.953 308.408 zM 472.361 314.146 C 470.921 315.358 470.619 316.027 470.619 318.011 C 470.619 321.227 472.548 323.13 475.807 323.13 C 480.474 323.13 482.535 317.715 479.156 314.336 C 477.046 312.226 474.721 312.161 472.361 314.147 L 472.361 314.146 zM 380.23 316.639 C 377.258 317.838 376.271 322.109 378.353 324.756 C 380.783 327.846 386.055 327.019 387.335 323.347 C 388.919 318.802 384.712 314.83 380.23 316.639 L 380.23 316.639 zM 334.122 326.225 C 329.262 331.085 336.251 338.095 341.355 333.48 C 343.079 331.922 343.491 329.558 342.405 327.459 C 340.663 324.089 336.829 323.518 334.122 326.225 L 334.122 326.225 zM 516.739 325.961 C 515.716 326.983 515.349 327.962 515.349 329.666 C 515.349 331.371 515.716 332.349 516.739 333.372 C 517.761 334.395 518.74 334.762 520.445 334.762 C 522.149 334.762 523.128 334.395 524.15 333.372 C 525.173 332.349 525.54 331.371 525.54 329.666 C 525.54 327.962 525.173 326.983 524.15 325.961 C 523.128 324.938 522.149 324.571 520.445 324.571 C 518.74 324.571 517.761 324.937 516.739 325.961 L 516.739 325.961 zM 475.514 329.356 C 474.365 330.422 474.016 331.283 474.016 333.062 C 474.016 336.251 475.924 338.159 479.112 338.159 C 482.236 338.159 484.215 336.238 484.19 333.23 C 484.17 330.882 483.459 329.639 481.556 328.626 C 479.546 327.555 477.144 327.845 475.514 329.355 L 475.514 329.356 zM 375.454 333.02 C 372.534 335.94 373.519 340.249 377.4 341.53 C 381.81 342.986 385.257 339.076 383.75 334.328 C 383.276 332.835 380.719 331.365 378.596 331.365 C 377.707 331.365 376.443 332.031 375.454 333.02 L 375.454 333.02 zM 332.054 341.954 C 328.57 342.627 327.255 348.38 330.002 350.926 C 334.258 354.87 340.848 349.469 338.083 344.302 C 337.585 343.373 334.079 341.342 333.476 341.634 C 333.388 341.676 332.748 341.821 332.054 341.955 L 332.054 341.954 zM 521.772 342.65 C 517.929 344.993 518.965 351.084 523.371 352.052 C 526.505 352.741 530.069 350.047 530.069 346.99 C 530.069 345.338 528.698 343.16 527.156 342.363 C 525.074 341.286 523.906 341.348 521.772 342.649 L 521.772 342.65 zM 478.917 344.463 C 477.513 345.279 476.262 348.419 476.672 350.102 C 477.29 352.643 479.08 354.013 481.784 354.013 C 485.018 354.013 487.038 352.156 487.038 349.183 C 487.038 345.217 482.329 342.48 478.917 344.463 L 478.917 344.463 zM 372.623 348.873 C 368.956 352.541 372.217 358.554 377.344 357.574 C 381.347 356.809 382.902 351.206 379.841 348.573 C 377.583 346.631 374.748 346.748 372.623 348.873 L 372.623 348.873 zM 482.201 360.499 C 480.211 362.489 480.262 366.014 482.309 367.912 C 485.756 371.107 491.002 368.87 491.002 364.204 C 491.002 362.5 490.635 361.521 489.612 360.499 C 488.59 359.476 487.611 359.109 485.906 359.109 C 484.202 359.109 483.223 359.475 482.201 360.499 L 482.201 360.499 zM 325.956 360.895 C 324.079 361.921 323.408 363.168 323.408 365.629 C 323.408 369.521 326.777 371.735 330.398 370.222 C 332.719 369.253 333.599 367.856 333.599 365.141 C 333.599 361.595 329.172 359.136 325.956 360.895 L 325.956 360.895 zM 526.063 361.896 C 523.953 364.006 523.888 366.331 525.874 368.69 C 527.086 370.131 527.755 370.433 529.739 370.433 C 532.954 370.433 534.857 368.504 534.857 365.244 C 534.857 360.578 529.443 358.516 526.063 361.896 L 526.063 361.896 zM 368.395 363.896 C 365.158 367.133 367.5 372.697 372.1 372.697 C 375.288 372.697 377.197 370.789 377.197 367.602 C 377.197 364.414 375.288 362.506 372.101 362.506 C 370.397 362.506 369.418 362.873 368.395 363.896 L 368.395 363.896 zM 486.19 376.778 C 484.338 377.84 483.678 379.075 483.66 381.516 C 483.635 384.633 485.6 386.544 488.83 386.544 C 491.83 386.544 493.833 384.407 493.833 381.21 C 493.833 377.435 489.463 374.901 486.19 376.779 L 486.19 376.778 zM 532.554 377.782 C 530.352 378.671 528.801 381.257 529.15 383.455 C 529.849 387.848 534.891 389.479 538.04 386.33 C 540.753 383.616 539.788 379.095 536.231 377.854 C 534.167 377.135 534.155 377.135 532.554 377.782 L 532.554 377.782 zM 320.196 379.149 C 318.937 380.232 318.621 380.982 318.621 382.889 C 318.621 384.795 318.937 385.546 320.196 386.629 C 324.238 390.106 330.125 386.606 328.841 381.489 C 327.922 377.828 323.214 376.553 320.196 379.149 L 320.196 379.149 zM 365.829 381.147 C 363.704 383.272 363.586 386.106 365.529 388.365 C 368.162 391.425 373.765 389.871 374.53 385.867 C 375.51 380.741 369.497 377.478 365.83 381.147 L 365.829 381.147 zM 488.429 395.603 C 487.406 396.625 487.039 397.604 487.039 399.309 C 487.039 401.013 487.406 401.992 488.429 403.014 C 489.451 404.037 490.43 404.404 492.135 404.404 C 493.839 404.404 494.818 404.037 495.84 403.014 C 496.863 401.992 497.23 401.013 497.23 399.309 C 497.23 397.604 496.864 396.625 495.84 395.603 C 494.818 394.58 493.839 394.213 492.135 394.213 C 490.43 394.213 489.451 394.58 488.429 395.603 L 488.429 395.603 zM 313.668 397.637 C 312.139 399.166 311.979 399.634 312.26 401.736 C 312.787 405.663 316.111 407.498 319.653 405.818 C 323.472 404.005 323.653 398.644 319.959 396.734 C 317.471 395.447 315.588 395.718 313.668 397.637 L 313.668 397.637 zM 537.23 397.3 C 536.08 398.365 535.732 399.227 535.732 401.005 C 535.732 404.194 537.64 406.102 540.828 406.102 C 543.956 406.102 545.923 404.186 545.923 401.139 C 545.923 396.58 540.562 394.212 537.23 397.3 L 537.23 397.3 zM 362.269 399.102 C 358.923 402.449 361.14 407.802 365.873 407.802 C 369.06 407.802 370.968 405.893 370.968 402.706 C 370.968 397.973 365.616 395.756 362.269 399.102 L 362.269 399.102 zM 492.657 412.854 C 489.95 415.561 490.521 419.394 493.892 421.137 C 495.989 422.222 498.348 421.812 499.926 420.087 C 501.616 418.239 501.909 416.615 500.963 414.351 C 499.515 410.884 495.373 410.138 492.658 412.854 L 492.657 412.854 zM 308.306 414.819 C 304.979 417.681 307.068 423.653 311.441 423.777 C 316.525 423.921 319.025 418.62 315.524 415.119 C 313.399 412.994 310.565 412.876 308.306 414.819 L 308.306 414.819 zM 542.707 414.823 C 541.406 415.942 541.138 416.612 541.191 418.614 C 541.316 423.394 546.52 425.41 549.93 422 C 552.259 419.671 552.011 416.217 549.37 414.189 C 547.822 413.001 544.452 413.322 542.707 414.823 L 542.707 414.823 zM 358.556 416.062 C 357.115 417.274 356.813 417.943 356.813 419.927 C 356.813 423.142 358.742 425.045 362.002 425.045 C 366.668 425.045 368.73 419.631 365.35 416.251 C 363.24 414.142 360.915 414.077 358.556 416.062 L 358.556 416.062 zM 497.242 428.345 C 493.042 430.47 493.833 437.098 498.408 438.103 C 501.594 438.803 505.158 436.136 505.158 433.052 C 505.158 431.401 503.786 429.222 502.245 428.425 C 500.335 427.438 499.076 427.418 497.242 428.345 L 497.242 428.345 zM 301.282 432.104 C 298.517 434.87 299.547 439.4 303.216 440.611 C 306.813 441.798 310.076 439.338 310.076 435.44 C 310.076 430.787 304.656 428.731 301.282 432.104 L 301.282 432.104 zM 549.578 431.839 C 548.556 432.862 548.188 433.841 548.188 435.545 C 548.188 437.249 548.555 438.228 549.578 439.251 C 550.601 440.274 551.58 440.641 553.284 440.641 C 554.988 440.641 555.967 440.274 556.99 439.251 C 558.012 438.228 558.38 437.249 558.38 435.545 C 558.38 433.841 558.013 432.862 556.99 431.839 C 555.967 430.817 554.988 430.449 553.284 430.449 C 551.58 430.449 550.601 430.816 549.578 431.839 L 549.578 431.839 zM 356.53 431.53 C 351.021 433.889 352.776 441.773 358.81 441.773 C 361.048 441.773 363.608 438.944 363.608 436.47 C 363.608 432.883 359.715 430.166 356.53 431.53 L 356.53 431.53 zM 297.601 446 C 294.6 447.262 293.541 449.852 294.797 452.858 C 297.046 458.241 304.76 456.314 304.711 450.381 C 304.683 447.011 300.835 444.64 297.601 446 L 297.601 446 zM 556.052 446.02 C 551.448 448.522 553.4 455.928 558.663 455.928 C 563.999 455.928 565.882 448.435 561.159 445.993 C 559.193 444.977 557.959 444.983 556.052 446.02 L 556.052 446.02 zM 564.042 463.122 C 560.957 464.25 559.459 467.809 560.898 470.591 C 562.64 473.962 566.474 474.532 569.181 471.825 C 571.894 469.112 570.928 464.591 567.372 463.35 C 565.418 462.669 565.303 462.661 564.042 463.122 L 564.042 463.122 zM 289.055 464.644 C 287.796 465.728 287.48 466.478 287.48 468.385 C 287.48 471.482 289.572 473.48 292.814 473.48 C 297.697 473.48 299.666 467.05 295.713 464.015 C 294.168 462.829 290.796 463.147 289.055 464.644 L 289.055 464.644 zM 502.043 475.715 C 497.961 476.846 496.532 480.933 499.128 484.054 C 501.522 486.931 501.396 488.365 498.047 496.287 C 494.405 504.902 493.267 509.005 493.267 513.52 C 493.267 519.875 496.484 525.409 500.885 526.624 C 505.407 527.873 510.558 524.606 511.959 519.6 C 513.596 513.754 511.668 502.893 507.319 493.456 C 505.06 488.554 504.886 486.121 506.685 484.557 C 507.423 483.915 508.171 482.484 508.347 481.377 C 508.892 477.953 505.373 474.792 502.044 475.715 L 502.043 475.715 zM 338.953 478.834 C 337.08 480.707 337.023 484.314 338.837 486.136 C 340.869 488.179 340.66 490.948 338.025 496.893 C 331.585 511.42 330.912 518.347 335.32 524.753 C 338.477 529.341 343.918 530.038 348.233 526.407 C 353.511 521.965 353.097 510.424 347.148 496.18 C 344.538 489.93 344.397 488.213 346.339 486.271 C 347.387 485.223 347.754 484.255 347.754 482.54 C 347.754 479.352 345.846 477.444 342.658 477.444 C 340.954 477.444 339.975 477.811 338.953 478.834 L 338.953 478.834 zM 201.861 490.123 C 199.761 491.929 199.652 495.391 201.629 497.495 C 203.829 499.836 203.574 501.83 199.964 510.54 C 196.27 519.451 195.143 524.154 195.611 528.691 C 195.978 532.253 198.366 537.043 200.549 538.598 C 205.125 541.856 210.755 540.066 213.7 534.417 C 216.354 529.328 214.799 518.46 209.8 507.17 C 207.651 502.315 207.088 499.02 208.326 498.545 C 209.38 498.141 210.734 495.339 210.734 493.566 C 210.734 492.677 210.069 491.412 209.079 490.423 C 206.955 488.298 204.12 488.181 201.862 490.124 L 201.861 490.123 zM 644.398 495.519 C 642.3 497.617 642.166 500.433 644.055 502.738 C 646.174 505.325 645.932 507.648 642.779 515.013 C 639.039 523.749 638.214 526.71 638.214 531.411 C 638.214 536.597 639.078 539.261 641.742 542.287 C 644.154 545.027 646.361 545.791 649.935 545.12 C 652.633 544.614 656.006 541.278 656.834 538.297 C 658.433 532.535 656.964 523.612 652.782 513.689 C 649.793 506.597 649.569 504.755 651.474 502.965 C 653.678 500.895 653.546 497.309 651.193 495.329 C 648.834 493.343 646.508 493.408 644.399 495.518 L 644.398 495.519 zM 457.968 514.888 C 457.394 515.222 456.562 516.361 456.121 517.419 C 455.425 519.083 455.426 519.605 456.126 521.279 C 457.073 523.546 458.496 524.446 461.098 524.421 C 465.528 524.378 467.749 519.033 464.701 515.745 C 463.198 514.124 459.986 513.716 457.968 514.889 L 457.968 514.888 zM 380.851 518.468 C 378.752 520.567 378.912 523.875 381.204 525.804 C 384.896 528.911 389.653 526.868 389.653 522.174 C 389.653 518.987 387.744 517.078 384.557 517.078 C 382.853 517.078 381.874 517.445 380.851 518.468 L 380.851 518.468 zM 232.977 531.63 C 229.193 532.362 227.487 538.653 230.26 541.645 C 231.034 542.48 231.668 543.727 231.667 544.417 C 231.667 545.107 231.713 546.077 231.77 546.574 C 231.826 547.07 230.199 551.02 228.155 555.35 C 223.319 565.591 221.816 570.501 221.844 575.962 C 221.9 586.431 229.193 593.173 236.939 589.918 C 239.719 588.75 242.373 585.671 243.305 582.532 C 245.409 575.448 243.508 562.822 238.608 551.333 C 236.665 546.775 236.519 543.454 238.221 542.543 C 240.703 541.214 241.574 536.634 239.819 534.13 C 238.968 532.915 235.711 531.13 234.674 531.31 C 234.431 531.352 233.667 531.496 232.977 531.63 L 232.977 531.63 zM 469.95 532.102 C 466.067 534.211 467.309 540.732 471.782 541.714 C 473.631 542.12 476.525 540.819 477.397 539.191 C 478.501 537.128 478.078 534.641 476.325 532.888 C 474.474 531.037 472.387 530.78 469.951 532.103 L 469.95 532.102 zM 369.064 535.556 C 366.377 538.243 367.228 542.564 370.731 544.028 C 372.409 544.728 372.925 544.728 374.603 544.028 C 376.901 543.067 377.762 541.666 377.762 538.886 C 377.762 534.493 372.241 532.379 369.063 535.556 L 369.064 535.556 zM 481.899 547.043 C 478.48 550.462 480.584 555.836 485.34 555.836 C 488.437 555.836 490.436 553.744 490.436 550.502 C 490.436 548.76 490.084 548.023 488.694 546.853 C 486.335 544.868 484.009 544.933 481.899 547.043 L 481.899 547.043 zM 609.552 547.9 C 607.138 548.95 605.94 550.855 605.94 553.641 C 605.94 555.341 606.321 556.391 607.333 557.483 C 609.771 560.113 609.439 562.295 605.242 571.237 C 600.315 581.736 599.045 585.859 598.987 591.533 C 598.952 595.07 599.219 596.684 600.206 598.894 C 603.28 605.771 608.821 608.259 614.713 605.407 C 619.331 603.171 621.228 598.886 621.228 590.686 C 621.228 584.297 619.745 577.654 616.425 569.169 C 613.633 562.033 613.553 559.971 615.975 557.549 C 619.18 554.344 618.261 549.618 614.095 547.877 C 611.826 546.929 611.785 546.929 609.552 547.901 L 609.552 547.9 zM 357.663 548.872 C 355.786 549.899 355.115 551.146 355.115 553.607 C 355.115 556.102 356.478 557.921 358.895 558.653 C 360.484 559.134 363.906 557.704 364.695 556.23 C 367.122 551.696 362.102 546.444 357.663 548.872 L 357.663 548.872 zM 587.432 553.456 C 585.825 555.232 585.484 557.14 586.388 559.303 C 587.85 562.802 591.886 563.492 594.659 560.718 C 596.797 558.581 596.902 555.812 594.926 553.68 C 593.063 551.669 589.155 551.553 587.432 553.456 L 587.432 553.456 zM 252.253 555.286 C 248.803 556.76 248.138 560.797 250.891 563.549 C 253.272 565.931 257.442 565.591 258.883 562.898 C 261.383 558.228 257.039 553.241 252.253 555.286 L 252.253 555.286 zM 497.417 559.802 C 493.886 561.337 493.214 565.805 496.142 568.268 C 499.649 571.219 504.591 569.256 504.591 564.911 C 504.591 562.137 503.73 560.73 501.45 559.777 C 499.197 558.836 499.642 558.834 497.417 559.801 L 497.417 559.802 zM 344.074 562.342 C 340.128 563.958 339.602 569.842 343.237 571.722 C 345.734 573.013 347.64 572.766 349.496 570.91 C 352.179 568.228 351.634 564.37 348.332 562.662 C 346.499 561.714 345.746 561.658 344.074 562.342 L 344.074 562.342 zM 579.663 570.344 C 578.837 571.325 578.197 572.79 578.197 573.697 C 578.197 574.605 578.837 576.07 579.663 577.051 C 580.833 578.442 581.569 578.793 583.311 578.793 C 586.553 578.793 588.645 576.795 588.645 573.697 C 588.645 570.6 586.553 568.602 583.311 568.602 C 581.569 568.602 580.832 568.953 579.663 570.344 L 579.663 570.344 zM 508.246 571.124 C 507.223 572.147 506.856 573.126 506.856 574.83 C 506.856 578.017 508.764 579.926 511.952 579.926 C 515.139 579.926 517.047 578.017 517.047 574.83 C 517.047 571.643 515.139 569.734 511.952 569.734 C 510.247 569.734 509.268 570.101 508.246 571.124 L 508.246 571.124 zM 258.006 573.242 C 253.734 578.319 260.998 584.671 265.699 579.969 C 267.809 577.86 267.874 575.534 265.888 573.175 C 264.668 571.724 264.013 571.433 261.975 571.433 C 259.918 571.433 259.285 571.721 258.006 573.242 L 258.006 573.242 zM 329.894 573.955 C 328.871 574.978 328.504 575.957 328.504 577.661 C 328.504 580.848 330.412 582.757 333.6 582.757 C 338.2 582.757 340.542 577.191 337.305 573.955 C 335.374 572.024 331.824 572.024 329.893 573.955 L 329.894 573.955 zM 527.301 580.15 C 525.796 580.984 524.459 583.067 524.428 584.625 C 524.365 587.808 527.884 590.563 531.106 589.856 C 535.513 588.888 536.548 582.797 532.705 580.453 C 530.626 579.186 529.186 579.105 527.301 580.15 L 527.301 580.15 zM 567.39 581.784 C 564.748 583.812 564.5 587.266 566.829 589.595 C 569.75 592.515 574.058 591.53 575.339 587.649 C 576.094 585.361 575.447 583.275 573.576 581.964 C 572.056 580.899 568.67 580.8 567.39 581.784 L 567.39 581.784 zM 312.04 583.845 C 309.449 586.437 310.028 590.45 313.233 592.107 C 317.475 594.301 322.363 589.899 320.548 585.519 C 319.114 582.056 314.698 581.188 312.04 583.845 L 312.04 583.845 zM 548.357 584.174 C 546.746 585.302 545.735 588.417 546.408 590.177 C 547.029 591.802 548.583 593.243 550.27 593.756 C 551.857 594.238 555.28 592.809 556.069 591.335 C 558.633 586.545 552.759 581.091 548.357 584.174 L 548.357 584.174 zM 271.458 585.163 C 269.73 587.014 269.369 589.123 270.428 591.172 C 272.181 594.562 276.007 595.14 278.722 592.426 C 280.572 590.576 280.825 588.663 279.548 586.195 C 278.583 584.328 277.674 583.889 274.767 583.889 C 273.299 583.889 272.282 584.28 271.459 585.163 L 271.458 585.163 zM 290.525 587.809 C 287.77 590.563 288.441 594.618 291.888 596.059 C 295.675 597.641 299.061 595.323 299.061 591.148 C 299.061 586.426 293.919 584.414 290.525 587.809 L 290.525 587.809 zM 508.459 627.758 C 505.529 629.403 505.221 635.064 507.981 636.541 C 509.94 637.589 509.712 640.392 507.095 647.437 C 503.833 656.217 502.892 660.019 502.892 664.428 C 502.892 674.721 510.079 681.159 517.14 677.192 C 518.365 676.502 519.878 675.113 520.502 674.103 C 524.01 668.427 522.229 657.035 515.849 644.343 C 513.278 639.228 513.137 637.676 515.066 635.748 C 519.209 631.604 513.628 624.855 508.459 627.758 L 508.459 627.758 zM 141.586 634.668 C 137.45 637.235 137.154 644.63 141.104 646.743 C 141.95 647.196 142.146 647.701 141.884 648.749 C 141.691 649.519 141.825 650.502 142.183 650.934 C 142.691 651.546 142.069 653.5 139.344 659.844 C 132.711 675.291 131.013 682.027 132.081 688.659 C 132.829 693.307 134.2 696.391 136.795 699.264 C 139.397 702.143 141.945 703.357 145.387 703.357 C 150.746 703.357 155.397 699.73 157.345 694.033 C 160.042 686.145 157.279 670.934 150.607 656.929 C 147.907 651.261 147.691 648.286 149.846 646.454 C 153.644 643.225 153.207 637.127 148.997 634.641 C 147.003 633.464 143.508 633.477 141.587 634.668 L 141.586 634.668 zM 696.716 645.298 C 692.064 647.322 691.248 654.749 695.362 657.631 C 696.069 658.127 696.445 659.019 696.414 660.131 C 696.386 661.083 696.527 662.124 696.726 662.446 C 696.925 662.768 695.174 667.626 692.834 673.243 C 686.212 689.142 685.054 695.674 687.47 703.497 C 689.315 709.47 694.826 714.629 699.404 714.668 C 702.073 714.691 706.09 712.914 708.369 710.704 C 712.589 706.608 713.996 698.249 712.064 688.753 C 710.89 682.983 707.815 673.812 705.232 668.383 C 702.465 662.566 702.244 658.988 704.533 657.062 C 708.637 653.609 707.263 647.064 702.015 645.076 C 699.957 644.297 698.918 644.34 696.716 645.299 L 696.716 645.298 zM 362.167 662.848 C 359.033 665.981 361.591 671.65 366.138 671.65 C 369.134 671.65 370.968 669.632 370.968 666.338 C 370.968 664.276 370.691 663.587 369.476 662.632 C 367.346 660.956 363.958 661.057 362.166 662.848 L 362.167 662.848 zM 486.73 668.51 C 482.628 672.613 488.174 679.472 493.353 676.7 C 494.831 675.909 496.132 672.776 495.707 671.031 C 495.089 668.49 493.299 667.12 490.595 667.12 C 488.722 667.12 487.782 667.458 486.73 668.51 L 486.73 668.51 zM 355.867 674.174 C 354.88 674.603 353.797 675.469 353.461 676.096 C 352.651 677.609 352.714 680.768 353.576 681.89 C 356.612 685.846 363.042 684.075 363.042 679.283 C 363.042 676.509 362.181 675.102 359.9 674.149 C 357.647 673.208 358.092 673.205 355.867 674.173 L 355.867 674.174 zM 183.247 680.508 C 180.077 683.929 182.536 689.202 187.301 689.202 C 190.457 689.202 192.841 686.103 192.213 682.819 C 191.498 679.078 185.908 677.637 183.247 680.508 L 183.247 680.508 zM 496.381 679.666 C 493.714 681.262 492.857 683.921 494.14 686.624 C 496.518 691.635 504.025 689.904 504.025 684.345 C 504.025 680.683 499.406 677.856 496.381 679.666 L 496.381 679.666 zM 664.234 681.894 C 662.716 682.452 660.862 685.055 660.862 686.628 C 660.862 688.267 662.429 690.659 663.96 691.356 C 666.372 692.455 668.181 692.161 669.964 690.378 C 672.53 687.812 671.979 683.774 668.841 682.151 C 666.941 681.169 666.303 681.133 664.235 681.894 L 664.234 681.894 zM 343.977 685.461 C 342.717 686.545 342.401 687.295 342.401 689.202 C 342.401 692.299 344.493 694.297 347.735 694.297 C 349.477 694.297 350.214 693.946 351.384 692.555 C 352.209 691.574 352.849 690.109 352.849 689.202 C 352.849 688.294 352.209 686.829 351.384 685.848 C 349.485 683.592 346.34 683.428 343.976 685.461 L 343.977 685.461 zM 505.909 690.557 C 502.992 693.067 504.113 698.017 507.928 699.475 C 509.932 700.241 512.934 699.061 513.943 697.11 C 515.23 694.62 514.982 692.712 513.128 690.857 C 511.003 688.732 508.168 688.615 505.91 690.558 L 505.909 690.557 zM 332.99 695.952 C 329.488 699.454 331.989 704.755 337.073 704.611 C 341.445 704.486 343.535 698.515 340.207 695.653 C 337.949 693.71 335.114 693.828 332.99 695.952 L 332.99 695.952 zM 626.28 700.482 C 625.291 701.471 624.625 702.736 624.625 703.624 C 624.625 705.268 626.08 708.452 626.831 708.452 C 627.093 708.452 627.24 709.662 627.156 711.142 C 627.05 713.015 626.057 715.808 623.885 720.343 C 620.039 728.374 618.798 732.544 618.837 737.317 C 618.887 743.544 622.343 749.069 626.8 750.048 C 630.952 750.96 635.652 747.843 637.34 743.058 C 639.263 737.609 637.874 727.815 633.637 716.945 C 631.493 711.443 631.483 709.935 633.578 707.72 C 638.407 702.615 631.247 695.514 626.279 700.481 L 626.28 700.482 zM 517.564 700.119 C 513.607 703.157 515.448 709.585 520.276 709.585 C 522.952 709.585 524.362 708.7 525.313 706.425 C 526.014 704.747 526.014 704.231 525.313 702.553 C 524.868 701.488 523.989 700.342 523.36 700.005 C 521.846 699.195 518.688 699.257 517.564 700.119 L 517.564 700.119 zM 217.572 701.992 C 215.333 703.876 215.123 707.231 217.121 709.228 C 219.223 711.331 218.753 713.973 214.754 722.522 C 211.397 729.696 209.611 735.55 209.63 739.31 C 209.635 740.244 210.122 742.407 210.712 744.117 C 211.815 747.313 211.784 748.23 210.612 747.057 C 209.774 746.22 206.507 746.186 204.987 746.999 C 204.359 747.335 203.48 748.482 203.035 749.547 C 202.334 751.225 202.334 751.741 203.035 753.419 C 205.545 759.427 214.343 756.352 212.755 750.022 L 212.388 748.561 L 214.339 750.049 C 219.963 754.339 227.27 750.89 228.87 743.188 C 230.117 737.19 228.3 726.95 224.338 717.639 C 222.508 713.339 222.567 711.968 224.695 709.4 C 225.997 707.828 226.424 705.066 225.669 703.099 C 225.219 701.926 222.523 700.526 220.714 700.526 C 219.944 700.526 218.53 701.185 217.571 701.992 L 217.572 701.992 zM 181.55 702.482 C 180.527 703.504 180.16 704.483 180.16 706.188 C 180.16 709.375 182.068 711.283 185.256 711.283 C 188.443 711.283 190.351 709.375 190.351 706.188 C 190.351 703.001 188.443 701.092 185.256 701.092 C 183.551 701.092 182.572 701.459 181.55 702.482 L 181.55 702.482 zM 393.308 702.482 C 392.285 703.504 391.918 704.483 391.918 706.188 C 391.918 709.375 393.826 711.283 397.013 711.283 C 400.155 711.283 402.109 709.369 402.109 706.291 C 402.109 701.66 396.54 699.249 393.308 702.482 L 393.308 702.482 zM 321.823 704.505 C 318.373 707.719 320.4 713.548 324.968 713.548 C 326.019 713.548 327.394 713.273 328.023 712.937 C 329.526 712.132 330.742 709.136 330.366 707.166 C 329.705 703.711 324.437 702.07 321.823 704.505 L 321.823 704.505 zM 455.049 703.764 C 450.81 704.796 449.831 711.299 453.62 713.258 C 456.142 714.562 458.043 714.32 459.905 712.459 C 462.704 709.66 461.986 705.649 458.419 704.158 C 457.364 703.717 456.429 703.386 456.341 703.422 C 456.253 703.459 455.672 703.612 455.049 703.764 L 455.049 703.764 zM 666.523 703.758 C 660.702 705.898 662.287 714.114 668.52 714.114 C 670.648 714.114 673.318 711.282 673.318 709.025 C 673.318 706.65 672.495 705.244 670.498 704.212 C 668.78 703.323 667.96 703.23 666.523 703.758 L 666.523 703.758 zM 237.035 706.553 C 233.84 710.001 236.077 715.247 240.743 715.247 C 242.447 715.247 243.426 714.88 244.449 713.857 C 245.471 712.834 245.839 711.855 245.839 710.151 C 245.839 706.963 243.93 705.055 240.742 705.055 C 238.963 705.055 238.102 705.403 237.036 706.553 L 237.035 706.553 zM 529.408 708.753 C 527.57 709.751 526.42 712.812 527.157 714.741 C 528.355 717.874 531.715 719.286 534.521 717.835 C 537.911 716.082 538.49 712.256 535.775 709.541 C 533.925 707.691 531.837 707.433 529.407 708.752 L 529.408 708.753 zM 613.345 709.352 C 611.904 710.564 611.602 711.233 611.602 713.217 C 611.602 716.432 613.531 718.335 616.79 718.335 C 621.457 718.335 623.519 712.921 620.139 709.542 C 618.029 707.432 615.704 707.367 613.345 709.353 L 613.345 709.352 zM 309.09 712.423 C 306.066 714.801 306.651 719.516 310.176 721.189 C 314.163 723.081 318.31 719.847 317.492 715.486 C 316.789 711.736 312.124 710.036 309.09 712.423 L 309.09 712.423 zM 251.457 714.071 C 248.683 716.845 249.374 720.881 252.873 722.342 C 257.46 724.259 261.632 720.042 259.707 715.434 C 258.267 711.987 254.212 711.317 251.457 714.071 L 251.457 714.071 zM 383.329 715.547 C 381.271 716.665 380.239 719.819 381.185 722.101 C 382.655 725.651 387.824 726.373 390.195 723.359 C 392.294 720.691 391.527 717.085 388.532 715.536 C 386.496 714.483 385.283 714.485 383.329 715.546 L 383.329 715.547 zM 295.947 716.467 C 294.125 717.464 293.399 718.723 293.399 720.891 C 293.399 724.801 296.443 727.149 299.99 725.979 C 303.872 724.698 304.856 720.389 301.936 717.469 C 300.181 715.713 297.994 715.348 295.947 716.468 L 295.947 716.467 zM 542.385 716.424 C 540.828 717.332 539.553 720.262 539.977 721.961 C 541.582 728.394 550.453 727.25 550.453 720.61 C 550.453 718.416 547.62 715.809 545.259 715.831 C 544.223 715.84 542.93 716.107 542.385 716.425 L 542.385 716.424 zM 598.837 717.203 C 597.815 718.226 597.447 719.205 597.447 720.909 C 597.447 724.096 599.356 726.005 602.543 726.005 C 605.73 726.005 607.639 724.096 607.639 720.909 C 607.639 717.722 605.73 715.813 602.543 715.813 C 600.839 715.813 599.86 716.18 598.837 717.203 L 598.837 717.203 zM 266.408 717.218 C 264.304 718.117 263.391 719.578 263.391 722.047 C 263.391 724.304 266.061 727.137 268.188 727.137 C 270.308 727.137 272.864 725.669 273.356 724.171 C 274.94 719.346 270.896 715.3 266.408 717.218 L 266.408 717.218 zM 280.333 719.167 C 276.914 722.586 279.017 727.96 283.774 727.96 C 286.871 727.96 288.87 725.868 288.87 722.626 C 288.87 720.884 288.518 720.147 287.128 718.977 C 284.768 716.992 282.443 717.057 280.333 719.167 L 280.333 719.167 zM 463.781 719.167 C 460.861 722.087 461.845 726.396 465.727 727.677 C 470.137 729.132 473.584 725.223 472.077 720.475 C 471.603 718.981 469.046 717.512 466.923 717.512 C 466.034 717.512 464.77 718.177 463.781 719.167 L 463.781 719.167 zM 186.079 720.6 C 185.057 721.623 184.689 722.602 184.689 724.306 C 184.689 727.493 186.598 729.402 189.785 729.402 C 192.972 729.402 194.881 727.493 194.881 724.306 C 194.881 721.119 192.972 719.21 189.785 719.21 C 188.081 719.21 187.102 719.577 186.079 720.6 L 186.079 720.6 zM 556.872 720.686 C 552.008 723.085 553.791 730.534 559.229 730.534 C 564.898 730.534 566.462 722.258 561.143 720.404 C 558.913 719.626 559.036 719.618 556.872 720.685 L 556.872 720.686 zM 585.514 721.998 C 582.174 725.338 584.205 730.534 588.851 730.534 C 593.027 730.534 595.346 727.148 593.763 723.361 C 592.323 719.913 588.268 719.244 585.513 721.998 L 585.514 721.998 zM 570.226 723.13 C 567.461 725.895 568.49 730.425 572.16 731.637 C 576.668 733.124 580.662 728.528 578.498 724.343 C 576.832 721.119 572.825 720.532 570.226 723.13 L 570.226 723.13 zM 662.277 721.88 C 658.564 722.778 657.212 728.069 659.987 730.843 C 664.089 734.946 670.948 729.4 668.177 724.221 C 667.684 723.3 664.208 721.278 663.57 721.541 C 663.482 721.577 662.9 721.73 662.278 721.88 L 662.277 721.88 zM 371.998 730.838 C 369.061 732.433 368.866 736.72 371.616 739.23 C 373.1 740.585 373.722 740.796 375.435 740.524 C 379.891 739.815 381.547 734.798 378.373 731.623 C 376.522 729.773 374.435 729.515 371.999 730.838 L 371.998 730.838 zM 169.093 731.924 C 167.368 733.649 167.204 737.098 168.752 739.093 C 170.888 741.844 170.667 743.281 166.848 751.464 C 160.939 764.128 160.122 770.169 163.485 776.347 C 166.268 781.46 171.42 783.138 175.877 780.383 C 182.727 776.15 182.751 763.692 175.94 746.955 C 174.351 743.049 174.458 741.18 176.381 739.256 C 179.749 735.889 177.551 730.535 172.8 730.535 C 171.096 730.535 170.117 730.902 169.094 731.925 L 169.093 731.924 zM 474.943 734.291 C 471.596 737.638 473.813 742.99 478.546 742.99 C 481.733 742.99 483.642 741.082 483.642 737.895 C 483.642 733.162 478.289 730.945 474.943 734.291 L 474.943 734.291 zM 193.354 736.737 C 188.62 739.624 192.034 747.509 197.432 746.154 C 202.073 744.99 202.967 738.612 198.793 736.453 C 196.675 735.357 195.519 735.418 193.354 736.737 L 193.354 736.737 zM 653.457 740.116 C 650.006 743.567 652.229 748.595 657.224 748.634 C 661.153 748.665 663.542 744.832 661.751 741.369 C 659.998 737.98 656.172 737.401 653.457 740.116 L 653.457 740.116 zM 361.601 742.116 C 360.578 743.138 360.211 744.117 360.211 745.821 C 360.211 749.009 362.119 750.917 365.306 750.917 C 368.494 750.917 370.402 749.009 370.402 745.821 C 370.402 742.634 368.494 740.726 365.306 740.726 C 363.602 740.726 362.623 741.093 361.601 742.116 L 361.601 742.116 zM 486.109 743.552 C 484.317 744.275 483.073 746.373 483.094 748.637 C 483.135 753.22 487.941 755.298 491.525 752.283 C 494.505 749.775 493.77 745.315 490.125 743.792 C 487.956 742.886 487.785 742.876 486.108 743.552 L 486.109 743.552 zM 665.674 745.79 C 662.443 747.113 661.278 751.9 663.617 754.239 C 665.766 756.388 665.465 758.552 661.997 765.886 C 657.347 775.72 656.626 778.12 656.627 783.757 C 656.629 789.297 657.707 791.986 661.131 794.993 C 662.774 796.435 663.66 796.779 665.731 796.779 C 673.074 796.779 677.039 789.787 675.605 779.364 C 674.979 774.81 672.145 764.904 670.628 761.968 C 670.149 761.04 669.702 759.304 669.634 758.112 C 669.537 756.387 669.843 755.613 671.132 754.323 C 673.779 751.677 673.214 747.808 669.933 746.111 C 668.1 745.163 667.347 745.106 665.675 745.791 L 665.674 745.79 zM 643.512 749.193 C 641.697 749.957 640.478 752.045 640.478 754.39 C 640.478 756.027 640.855 756.796 642.221 757.944 C 645.844 760.993 650.612 758.878 650.652 754.205 C 650.684 750.485 646.844 747.789 643.512 749.193 L 643.512 749.193 zM 350.019 749.67 C 346.658 750.178 344.729 754.032 346.309 757.087 C 348.052 760.458 351.885 761.028 354.592 758.321 C 358.235 754.679 355.175 748.892 350.019 749.67 L 350.019 749.67 zM 498.885 753.705 C 495.506 757.084 497.568 762.498 502.234 762.498 C 505.493 762.498 507.422 760.595 507.422 757.38 C 507.422 755.396 507.12 754.727 505.68 753.515 C 503.32 751.529 500.995 751.594 498.885 753.704 L 498.885 753.705 zM 334.368 755.987 C 331.047 757.385 330.324 761.884 332.99 764.55 C 334.846 766.406 336.752 766.653 339.249 765.362 C 341.001 764.456 341.719 762.943 341.644 760.31 C 341.555 757.184 337.395 754.712 334.368 755.987 L 334.368 755.987 zM 217.572 758.611 C 216.132 759.824 215.83 760.492 215.83 762.476 C 215.83 765.692 217.759 767.595 221.018 767.595 C 225.685 767.595 227.746 762.18 224.367 758.801 C 222.257 756.691 219.932 756.626 217.572 758.612 L 217.572 758.611 zM 514.387 758.851 C 512.666 759.544 511.23 762.509 511.662 764.477 C 512.052 766.254 513.873 768.15 515.731 768.713 C 517.551 769.264 520.92 767.651 521.58 765.912 C 522.54 763.388 522.227 761.672 520.488 759.933 C 518.775 758.221 516.816 757.873 514.387 758.851 L 514.387 758.851 zM 628.846 761.366 C 627.823 762.389 627.456 763.368 627.456 765.072 C 627.456 768.259 629.365 770.168 632.552 770.168 C 635.675 770.168 637.655 768.247 637.629 765.239 C 637.62 764.057 637.301 762.686 636.922 762.192 C 634.971 759.651 630.969 759.242 628.845 761.366 L 628.846 761.366 zM 319.25 763.449 C 317.822 764.279 316.652 767.286 317.017 769.19 C 317.732 772.932 323.322 774.372 325.983 771.501 C 328.231 769.075 327.557 764.722 324.734 763.436 C 323.008 762.649 320.615 762.655 319.25 763.448 L 319.25 763.449 zM 529.124 765.898 C 523.279 768.44 526.431 777.15 532.632 775.594 C 534.883 775.029 536.299 773.248 536.299 770.98 C 536.299 768.233 535.432 766.824 533.157 765.873 C 530.904 764.932 531.349 764.929 529.124 765.897 L 529.124 765.898 zM 233.018 767.877 C 229.698 769.276 228.975 773.774 231.64 776.44 C 233.75 778.549 236.075 778.614 238.435 776.629 C 241.828 773.773 240.307 768.374 235.903 767.643 C 234.984 767.491 233.686 767.596 233.018 767.877 L 233.018 767.877 zM 304.094 768.724 C 301.168 770.37 300.624 774.562 303.025 776.962 C 306.477 780.415 312.084 777.783 312.084 772.711 C 312.084 769.352 307.258 766.945 304.094 768.725 L 304.094 768.724 zM 248.927 770.992 C 247.905 772.014 247.537 772.993 247.537 774.698 C 247.537 776.402 247.904 777.381 248.927 778.403 C 249.95 779.426 250.929 779.793 252.633 779.793 C 254.337 779.793 255.316 779.426 256.339 778.403 C 257.361 777.381 257.729 776.402 257.729 774.698 C 257.729 772.993 257.362 772.014 256.339 770.992 C 255.316 769.969 254.337 769.602 252.633 769.602 C 250.929 769.602 249.95 769.969 248.927 770.992 L 248.927 770.992 zM 615.371 770.809 C 613.966 771.626 612.716 774.767 613.127 776.449 C 613.907 779.641 616.857 781.335 619.891 780.333 C 622.252 779.554 623.492 777.848 623.492 775.378 C 623.492 771.563 618.705 768.871 615.37 770.809 L 615.371 770.809 zM 543.865 771.397 C 543.199 771.719 542.372 772.605 542.025 773.366 C 540.234 777.296 542.378 780.926 546.49 780.926 C 549.677 780.926 551.585 779.017 551.585 775.83 C 551.585 771.713 547.754 769.513 543.865 771.397 L 543.865 771.397 zM 287.488 772.507 C 285.368 774.174 284.724 776.109 285.503 778.469 C 286.744 782.231 292.037 783.119 294.507 779.979 C 296.606 777.311 295.839 773.704 292.844 772.155 C 290.599 770.995 289.302 771.08 287.488 772.507 L 287.488 772.507 zM 599.146 772.266 C 597.108 773.011 595.749 774.911 595.749 777.014 C 595.749 779.921 596.188 780.831 598.054 781.795 C 600.524 783.072 602.436 782.819 604.285 780.969 C 606.967 778.287 606.423 774.429 603.121 772.721 C 601.404 771.833 600.586 771.739 599.146 772.266 L 599.146 772.266 zM 269.004 773.159 C 266.469 775.105 266.15 778.383 268.254 780.882 C 269.424 782.273 270.16 782.624 271.902 782.624 C 275.145 782.624 277.237 780.626 277.237 777.529 C 277.237 775.622 276.921 774.871 275.661 773.788 C 273.92 772.291 270.549 771.972 269.004 773.159 L 269.004 773.159 zM 559.469 775.786 C 556.695 778.56 557.386 782.597 560.884 784.058 C 564.435 785.541 568.005 783.377 568.005 779.741 C 568.005 776.834 567.566 775.924 565.7 774.96 C 563.23 773.683 561.318 773.937 559.469 775.786 L 559.469 775.786 zM 579.001 775.501 C 575.968 776.822 575.116 781.276 577.41 783.821 C 578.152 784.645 577.999 784.766 575.861 785.053 C 572.571 785.494 570.238 787.899 569.862 791.238 C 569.539 794.1 570.688 796.924 572.59 797.942 C 573.487 798.422 573.682 798.909 573.409 799.994 C 573.213 800.777 573.336 801.76 573.684 802.178 C 574.166 802.76 573.302 805.34 570.009 813.146 C 564.972 825.088 563.476 830.411 563.476 836.394 C 563.476 845.097 567.732 852.433 573.832 854.245 C 576.44 855.019 577.046 855.019 579.73 854.239 C 586.246 852.345 590.087 846.066 590.087 837.309 C 590.087 830.474 586.463 817.35 581.94 807.801 C 580.516 804.795 579.646 802.278 579.893 801.878 C 580.129 801.496 580.202 800.721 580.054 800.155 C 579.881 799.491 580.427 798.553 581.594 797.51 C 583.941 795.414 584.569 791.391 583.004 788.484 C 582.442 787.441 581.767 786.587 581.505 786.587 C 581.243 786.587 581.028 786.332 581.028 786.021 C 581.028 785.71 581.503 785.455 582.084 785.455 C 583.807 785.455 586.054 783.285 586.435 781.252 C 586.916 778.694 585.525 776.126 583.225 775.324 C 581.046 774.565 581.16 774.56 579.001 775.5 L 579.001 775.501 zM 274.95 784.543 C 272.14 785.796 270.751 788.015 270.751 791.25 C 270.751 793.667 271.01 794.32 272.592 795.902 C 274.272 797.582 274.427 798.032 274.373 801.082 C 274.323 803.885 273.705 805.82 270.539 813.096 C 265.622 824.392 264.343 829.043 264.359 835.564 C 264.369 839.482 264.67 841.437 265.661 844.023 C 267.315 848.338 271.33 852.487 274.739 853.405 C 280.915 855.068 287.723 850.841 289.735 844.095 C 291.157 839.331 290.827 831.257 288.908 823.853 C 287.299 817.646 284.667 810.487 281.932 804.879 C 280.261 801.451 280.287 798.195 281.994 796.998 C 284.705 795.099 285.671 790.841 284.086 787.776 C 282.47 784.651 278.14 783.118 274.95 784.542 L 274.95 784.543 z"/>
</g>

</svg>